<svg width="28" height="17" viewBox="0 0 28 17" fill="none" xmlns="http://www.w3.org/2000/svg">
<path d="M27.1427 6.73969L16.5154 0.381476C16.2525 0.221507 15.9515 0.135078 15.6438 0.131218C15.336 0.127358 15.0329 0.206208 14.7661 0.359532C14.4765 0.52813 14.2368 0.770347 14.0712 1.06158C13.9055 1.35282 13.8199 1.68271 13.823 2.01773V6.46567L3.6544 0.379788C3.39149 0.219819 3.09045 0.13339 2.78272 0.12953C2.475 0.12567 2.17188 0.20452 1.90504 0.357844C1.61551 0.526442 1.37576 0.768659 1.21013 1.0599C1.0445 1.35113 0.958891 1.68102 0.962001 2.01604V14.4511C0.958791 14.7863 1.04435 15.1163 1.20999 15.4076C1.37562 15.6989 1.61543 15.9413 1.90504 16.1099C2.17188 16.2632 2.475 16.3421 2.78272 16.3382C3.09045 16.3344 3.39149 16.2479 3.6544 16.088L13.823 9.99926V14.4489C13.8194 14.7844 13.9048 15.1149 14.0705 15.4066C14.2361 15.6984 14.4761 15.9411 14.7661 16.1099C15.0329 16.2632 15.336 16.3421 15.6438 16.3382C15.9515 16.3344 16.2525 16.2479 16.5154 16.088L27.1427 9.72974C27.3953 9.57148 27.6036 9.35163 27.748 9.09081C27.8923 8.82999 27.9681 8.53677 27.9681 8.23865C27.9681 7.94054 27.8923 7.64731 27.748 7.3865C27.6036 7.12568 27.3953 6.90583 27.1427 6.74757V6.73969Z" fill="#E1E1E6"/>
</svg>

