<svg width="19" height="22" viewBox="0 0 19 22" fill="none" xmlns="http://www.w3.org/2000/svg">
<path d="M2.3214 21.586C1.97593 21.5853 1.63658 21.4948 1.33672 21.3232C0.661515 20.9406 0.24176 20.1978 0.24176 19.3915V3.07398C0.24176 2.26542 0.661515 1.52494 1.33672 1.14232C1.64372 0.965889 1.99247 0.875158 2.34653 0.879612C2.70059 0.884066 3.04695 0.983543 3.34941 1.16764L17.2953 9.51548C17.5859 9.69772 17.8255 9.95079 17.9916 10.251C18.1577 10.5511 18.2448 10.8886 18.2448 11.2316C18.2448 11.5747 18.1577 11.9121 17.9916 12.2123C17.8255 12.5125 17.5859 12.7655 17.2953 12.9478L3.34716 21.2979C3.03763 21.485 2.6831 21.5846 2.3214 21.586Z" fill="#E1E1E6"/>
</svg>
