<svg width="28" height="13" viewBox="0 0 28 17" fill="none" xmlns="http://www.w3.org/2000/svg">
<path d="M1.33917 6.73969L11.9664 0.381476C12.2293 0.221507 12.5303 0.135078 12.8381 0.131218C13.1458 0.127358 13.4489 0.206208 13.7157 0.359532C14.0053 0.52813 14.245 0.770347 14.4107 1.06158C14.5763 1.35282 14.6619 1.68271 14.6588 2.01773V6.46567L24.8274 0.379788C25.0903 0.219819 25.3914 0.13339 25.6991 0.12953C26.0068 0.12567 26.3099 0.20452 26.5768 0.357844C26.8663 0.526442 27.1061 0.768659 27.2717 1.0599C27.4373 1.35113 27.5229 1.68102 27.5198 2.01604V14.4511C27.5231 14.7863 27.4376 15.1163 27.2719 15.4076C27.1063 15.699 26.8664 15.9413 26.5768 16.1099C26.3099 16.2632 26.0068 16.3421 25.6991 16.3382C25.3914 16.3344 25.0903 16.2479 24.8274 16.088L14.6588 9.99926V14.4489C14.6625 14.7844 14.5771 15.1149 14.4114 15.4067C14.2458 15.6985 14.0057 15.9411 13.7157 16.1099C13.4489 16.2632 13.1458 16.3421 12.8381 16.3382C12.5303 16.3344 12.2293 16.2479 11.9664 16.088L1.33917 9.72974C1.08653 9.57148 0.878246 9.35163 0.733863 9.09081C0.589479 8.82999 0.513733 8.53677 0.513733 8.23865C0.513733 7.94054 0.589479 7.64731 0.733863 7.3865C0.878246 7.12568 1.08653 6.90583 1.33917 6.74757V6.73969Z" fill="#E1E1E6"/>
</svg>
